<?xml version="1.0" encoding="UTF-8" standalone="no"?>
<!-- Generator: Adobe Illustrator 19.2.1, SVG Export Plug-In . SVG Version: 6.00 Build 0)  -->

<svg
   xmlns:dc="http://purl.org/dc/elements/1.1/"
   xmlns:cc="http://creativecommons.org/ns#"
   xmlns:rdf="http://www.w3.org/1999/02/22-rdf-syntax-ns#"
   xmlns:svg="http://www.w3.org/2000/svg"
   xmlns="http://www.w3.org/2000/svg"
   xmlns:sodipodi="http://sodipodi.sourceforge.net/DTD/sodipodi-0.dtd"
   xmlns:inkscape="http://www.inkscape.org/namespaces/inkscape"
   version="1.1"
   id="Layer_1"
   x="0px"
   y="0px"
   viewBox="0 0 30 30"
   style="enable-background:new 0 0 30 30;"
   xml:space="preserve"
   sodipodi:docname="chevrons.svg"
   inkscape:version="0.92.3 (2405546, 2018-03-11)"><metadata
   id="metadata22"><rdf:RDF><cc:Work
       rdf:about=""><dc:format>image/svg+xml</dc:format><dc:type
         rdf:resource="http://purl.org/dc/dcmitype/StillImage" /></cc:Work></rdf:RDF></metadata><defs
   id="defs20" /><sodipodi:namedview
   pagecolor="#ffffff"
   bordercolor="#666666"
   borderopacity="1"
   objecttolerance="10"
   gridtolerance="10"
   guidetolerance="10"
   inkscape:pageopacity="0"
   inkscape:pageshadow="2"
   inkscape:window-width="924"
   inkscape:window-height="732"
   id="namedview18"
   showgrid="false"
   inkscape:zoom="7.8666667"
   inkscape:cx="15"
   inkscape:cy="15"
   inkscape:window-x="2877"
   inkscape:window-y="189"
   inkscape:window-maximized="0"
   inkscape:current-layer="Layer_1" />
<style
   type="text/css"
   id="style13">
	.st0{fill:#636369;}
</style>
<path
   class="st0"
   d="m 15,7.1 -4.2,4.3 c -0.5,0.5 -1.4,0.5 -1.9,0 -0.5,-0.5 -0.5,-1.4 0,-2 L 14,4.2 c 0.5,-0.5 1.4,-0.5 1.9,0 L 21,9.4 c 0.3,0.3 0.4,0.6 0.4,1 0,0.4 -0.1,0.7 -0.4,1 -0.5,0.5 -1.4,0.6 -1.9,0"
   id="path15"
   inkscape:connector-curvature="0"
   style="fill:#f2f2f2" />
<path
   inkscape:connector-curvature="0"
   class="st0"
   d="m 15.216737,20.997458 4.2,-4.3 c 0.5,-0.5 1.4,-0.5 1.9,0 0.5,0.5 0.5,1.4 0,2 l -5.1,5.299999 c -0.5,0.5 -1.4,0.5 -1.9,0 L 9.2167368,18.797458 c -0.2999996,-0.3 -0.3999996,-0.6 -0.3999996,-1 0,-0.4 0.1,-0.7 0.3999996,-1 0.5,-0.5 1.4000002,-0.6 1.9000002,0"
   id="path4"
   style="fill:#f2f2f2" /></svg>