<?xml version="1.0" encoding="UTF-8" standalone="no"?>
<svg
   xmlns:dc="http://purl.org/dc/elements/1.1/"
   xmlns:cc="http://creativecommons.org/ns#"
   xmlns:rdf="http://www.w3.org/1999/02/22-rdf-syntax-ns#"
   xmlns:svg="http://www.w3.org/2000/svg"
   xmlns="http://www.w3.org/2000/svg"
   xmlns:sodipodi="http://sodipodi.sourceforge.net/DTD/sodipodi-0.dtd"
   xmlns:inkscape="http://www.inkscape.org/namespaces/inkscape"
   viewBox="0 0 100 100"
   version="1.1"
   id="svg3924"
   sodipodi:docname="human.svg"
   width="100"
   height="100"
   inkscape:version="0.92.2 (5c3e80d, 2017-08-06)">
  <metadata
     id="metadata3930">
    <rdf:RDF>
      <cc:Work
         rdf:about="">
        <dc:format>image/svg+xml</dc:format>
        <dc:type
           rdf:resource="http://purl.org/dc/dcmitype/StillImage" />
        <dc:title></dc:title>
      </cc:Work>
    </rdf:RDF>
  </metadata>
  <defs
     id="defs3928" />
  <sodipodi:namedview
     pagecolor="#ffffff"
     bordercolor="#666666"
     borderopacity="1"
     objecttolerance="10"
     gridtolerance="10"
     guidetolerance="10"
     inkscape:pageopacity="0"
     inkscape:pageshadow="2"
     inkscape:window-width="1920"
     inkscape:window-height="1025"
     id="namedview3926"
     showgrid="false"
     inkscape:zoom="3.4766083"
     inkscape:cx="40.474576"
     inkscape:cy="56.745763"
     inkscape:window-x="0"
     inkscape:window-y="27"
     inkscape:window-maximized="1"
     inkscape:current-layer="svg3924" />
  <path
     d="m 49.531622,13.256263 c -8.49285,0 -16.647916,3.008092 -22.438498,8.977641 -5.404541,5.596452 -8.444595,13.035069 -8.444595,20.870101 v 1.515707 c -3.860387,2.984773 -3.860387,7.835032 -3.860387,9.327419 0,4.850258 3.812132,8.884366 8.444596,10.376755 3.860386,14.550773 16.26188,23.201956 26.298884,23.201956 10.037006,0 22.438499,-8.651183 26.298886,-23.201956 4.632464,-1.119293 8.444595,-5.176719 8.444595,-10.026978 0,-1.865483 0,-6.342645 -3.860386,-9.327419 v -1.515704 c 0,-7.835034 -3.040055,-15.273651 -8.444596,-20.870102 -5.79058,-6.342646 -13.945648,-9.32742 -22.438499,-9.32742 z M 37.950463,31.911102 c 13.511353,16.789355 25.478551,-4.127383 34.74348,17.139134 0,0 4.632465,1.142609 3.860387,5.246672 -0.772077,5.223356 -6.996951,4.080747 -6.996951,4.080747 l -0.723823,2.681633 c -2.70227,12.68529 -13.125314,19.354396 -19.301934,19.354396 -6.176617,0 -16.599661,-6.669106 -19.301933,-19.354396 l -0.361912,-2.681633 c 0,0 -6.99695,0.396416 -6.99695,-4.080747 0,-4.850258 3.860386,-5.246672 3.860386,-5.246672 l 3.498476,1.515705 c 0,-7.835032 3.088309,-16.789355 7.720774,-18.654839 z m 1.930192,14.923871 c -3.198048,0 -5.790579,2.505617 -5.790579,5.596452 0,3.090835 2.592531,5.596451 5.790579,5.596451 3.19805,0 5.790581,-2.505616 5.790581,-5.596451 0,-3.090835 -2.592531,-5.596452 -5.790581,-5.596452 z m 19.301934,0 c -3.198048,0 -5.790579,2.505617 -5.790579,5.596452 0,3.090835 2.592531,5.596451 5.790579,5.596451 3.198049,0 5.790581,-2.505616 5.790581,-5.596451 0,-3.090835 -2.592532,-5.596452 -5.790581,-5.596452 z"
     id="path3922"
     inkscape:connector-curvature="0"
     style="stroke-width:3.79512572" />
</svg>
