<?xml version="1.0" encoding="UTF-8" standalone="no"?>
<svg
   xmlns:dc="http://purl.org/dc/elements/1.1/"
   xmlns:cc="http://creativecommons.org/ns#"
   xmlns:rdf="http://www.w3.org/1999/02/22-rdf-syntax-ns#"
   xmlns:svg="http://www.w3.org/2000/svg"
   xmlns="http://www.w3.org/2000/svg"
   xmlns:sodipodi="http://sodipodi.sourceforge.net/DTD/sodipodi-0.dtd"
   xmlns:inkscape="http://www.inkscape.org/namespaces/inkscape"
   version="1.1"
   x="0px"
   y="0px"
   viewBox="0 0 1000 1000"
   enable-background="new 0 0 1000 1000"
   xml:space="preserve"
   id="svg8"
   sodipodi:docname="signout.svg"
   inkscape:version="0.92.4 (5da689c313, 2019-01-14)"><metadata
   id="metadata14"><rdf:RDF><cc:Work
       rdf:about=""><dc:format>image/svg+xml</dc:format><dc:type
         rdf:resource="http://purl.org/dc/dcmitype/StillImage" /></cc:Work></rdf:RDF></metadata><defs
   id="defs12" /><sodipodi:namedview
   pagecolor="#ffffff"
   bordercolor="#666666"
   borderopacity="1"
   objecttolerance="10"
   gridtolerance="10"
   guidetolerance="10"
   inkscape:pageopacity="0"
   inkscape:pageshadow="2"
   inkscape:window-width="1444"
   inkscape:window-height="858"
   id="namedview10"
   showgrid="false"
   inkscape:zoom="0.236"
   inkscape:cx="500"
   inkscape:cy="500"
   inkscape:window-x="0"
   inkscape:window-y="27"
   inkscape:window-maximized="0"
   inkscape:current-layer="svg8" />
<g
   id="g6"
   style="fill:#ececec"
   transform="matrix(0.90625469,0,0,0.8702871,51.10057,64.856448)"><path
     d="M 500,990 C 439,990 379.8,978 324,954.5 270.2,931.7 221.8,899.1 180.3,857.6 138.8,816.1 106.2,767.7 83.4,713.9 59.8,658.1 47.9,598.9 47.9,537.9 c 0,-73 17.9,-145.6 51.8,-209.8 32.7,-62 80.2,-116.5 137.5,-157.5 15.9,-11.4 38,-7.7 49.3,8.2 11.4,15.9 7.7,38 -8.2,49.3 -48.4,34.6 -88.5,80.6 -116.1,133 -28.9,54.9 -43.6,114.4 -43.6,176.9 0,101.9 39.7,197.6 111.7,269.7 72,72 167.8,111.7 269.6,111.7 101.9,0 197.6,-39.7 269.7,-111.7 72.1,-72 111.7,-167.8 111.7,-269.7 0,-62.5 -14.7,-122 -43.6,-176.9 -27.6,-52.4 -67.8,-98.4 -116.2,-133 -15.9,-11.4 -19.5,-33.5 -8.2,-49.3 11.4,-15.9 33.5,-19.5 49.3,-8.2 57.3,41 104.8,95.5 137.5,157.5 33.9,64.3 51.8,136.8 51.8,209.8 0,61 -12,120.2 -35.5,176 C 893.6,767.7 861,816.1 819.5,857.6 778,899.1 729.6,931.7 675.8,954.5 620.2,978 561,990 500,990 Z"
     id="path2"
     style="fill:#ececec"
     inkscape:connector-curvature="0" /><path
     d="m 510.6,499.4 c -19.5,0 -35.4,-15.8 -35.4,-35.4 V 45.4 C 475.2,25.9 491,10 510.6,10 530.1,10 546,25.8 546,45.4 v 418.7 c 0,19.5 -15.8,35.3 -35.4,35.3 z"
     id="path4"
     style="fill:#ececec"
     inkscape:connector-curvature="0" /></g>
</svg>