<?xml version="1.0" encoding="UTF-8" standalone="no"?>
<svg
        xmlns:dc="http://purl.org/dc/elements/1.1/"
        xmlns:cc="http://creativecommons.org/ns#"
        xmlns:rdf="http://www.w3.org/1999/02/22-rdf-syntax-ns#"
        xmlns:svg="http://www.w3.org/2000/svg"
        xmlns="http://www.w3.org/2000/svg"
        xmlns:sodipodi="http://sodipodi.sourceforge.net/DTD/sodipodi-0.dtd"
        xmlns:inkscape="http://www.inkscape.org/namespaces/inkscape"
        version="1.1"
        x="0px"
        y="0px"
        viewBox="0 0 32 32"
        enable-background="new 0 0 1000 1000"
        xml:space="preserve"
        id="svg8"
        sodipodi:docname="not-signed-in.svg"
        width="32"
        height="32"
        inkscape:version="1.0.1 (3bc2e813f5, 2020-09-07)"><defs id="defs12" /><sodipodi:namedview
        pagecolor="#ffffff"
        bordercolor="#666666"
        borderopacity="1"
        objecttolerance="10"
        gridtolerance="10"
        guidetolerance="10"
        inkscape:pageopacity="0"
        inkscape:pageshadow="2"
        inkscape:window-width="1904"
        inkscape:window-height="1273"
        id="namedview10"
        showgrid="false"
        inkscape:zoom="4"
        inkscape:cx="119.5"
        inkscape:cy="121.875"
        inkscape:window-x="0"
        inkscape:window-y="0"
        inkscape:window-maximized="0"
        inkscape:current-layer="svg8" />
    <metadata
            id="metadata2">SimSage Sign-in<rdf:RDF><cc:Work
     rdf:about=""><dc:format>image/svg+xml</dc:format><dc:type
            rdf:resource="http://purl.org/dc/dcmitype/StillImage" /></cc:Work></rdf:RDF></metadata>
    <g
            id="g6" fill="#51B274"
            transform="matrix(0.03191859,0,0,0.03201102,0.00799193,0.09885006)"><path
     d="M 500,10 C 229.4,10 10,229.4 10,500 10,770.6 229.4,990 500,990 770.6,990 990,770.6 990,500 990,229.4 770.6,10 500,10 Z m -3.8,245 c 70,0 126.7,56.7 126.7,126.7 0,70 -56.7,126.7 -126.7,126.7 -70,0 -126.7,-56.7 -126.7,-126.7 0,-70 56.8,-126.7 126.7,-126.7 z m 132.9,490 h -266 c -25.8,0 -78.2,-21.1 -78.2,-46.8 v 0 c 0,-85.8 70.4,-156 156.4,-156 h 109.5 c 86,0 156.4,70.2 156.4,156 0.2,25.7 -52.3,46.8 -78.1,46.8 z"
      /></g>
</svg>
